<?xml version="1.0" encoding="UTF-8"?>
<svg xmlns="http://www.w3.org/2000/svg" version="1.1" viewBox="0 0 100 100">
  <defs>
    <style>
      .cls-1 {
        fill: #fff;
      }
    </style>
  </defs>
  <!-- Generator: Adobe Illustrator 28.7.1, SVG Export Plug-In . SVG Version: 1.2.0 Build 142)  -->
  <g>
    <g id="Layer_1">
      <g id="OKgt5M.tif">
        <g>
          <path class="cls-1" d="M54.89,5.93c-2.05-.53-3.62.01-5.29,1.11-5.46,3.6-11.13,6.82-16.54,10.5-3.9,2.66-7.55,5.74-11.23,8.76-1.55,1.28-2.89,2.86-4.32,4.31.11.14.22.28.34.42.42-.3.82-.82,1.26-.86.8-.08,1.63.1,2.43.25.13.02.35.53.28.65-.92,1.48,0,1.27.93,1.28.47,0,.95.38,1.51.62.75-.5,1.62-1.08,2.48-1.65.08.12.15.24.23.36-1.7,1.06-2.36,3.4-4.53,3.91-.37.09-.72.47-1,.8-.84,1-1.52,2.2-2.5,3-1.22,1.01-2.04,2.63-3.92,2.77-.97.07-.92.85-.04,1.44.26.18.32.71.47,1.07-.31.09-.62.19-.94.28,0,.11-.02.22-.03.32.67.11,1.33.23,1.94.33.1.9.22,1.9.33,2.89.74-.08,1.19-.13,1.64-.18-2.13,2.23-4.49,4.01-6.68,6-1.48,1.34-2.75,2.95-4.05,4.51-.63.75-1.11,1.64-1.93,2.89,1.59-.17,2.64-.28,3.84-.4-.05.26-.25.71-.18,1.12.13.83.18,1.86.67,2.4.56.62,1.33.2,2.02-.45,3.71-3.46,7.48-6.82,11.24-10.21.37-.33.81-.56,1.22-.84.1.11.19.22.29.32-.31.46-.58.94-.92,1.36-2.21,2.79-4.3,5.7-6.7,8.3-2.34,2.55-3.12,5.91-4.68,8.85-.03.07.05.2.11.4.66-.48,1.3-.93,1.93-1.39.45.35.89.7,1.34,1.04-.47,2.05-3.44,2.84-2.38,6.18,1.25-1.77,2.26-3.21,3.33-4.73,1.05,1.85-1.07,2.5-1.16,4.03.55-.5.96-.87,1.33-1.21.17.87.3,1.57.47,2.47.6-.53.91-.8,1.22-1.08.32.38.59.69.85.99,3.81-3.41,3.86-3.45,5.96-3.57-.56.71-1.12,1.41-1.67,2.12,1.82-.18,3.55-.45,5.09-1.19,1.7-.81,3.21-2.05,4.73-3.05-.03.09-.07.5-.27.74-1.12,1.34-2.29,2.63-3.43,3.94-2.52,2.92-3.25,4.35-4.15,8.35.69-.99,1.13-1.78,1.71-2.43.51-.56,1.18-.97,2.14-1.73-.49.97-.74,1.46-.86,1.71.62.98,1.14,1.81,1.83,2.91.87-1.21,1.76-2.46,2.66-3.7-1.1,3.32-3.92,5.34-5.7,8.42.59.27,1.18.8,1.57.66.56-.19.97-.86,1.61-1.49-.15.71-.24,1.13-.43,2.04.8-.75,1.24-1.16,1.67-1.57.1.07.21.15.31.22-.47.86-.94,1.72-1.35,2.48,1.35,1.52,1.51-.71,2.38-.81.18.37.37.75.64,1.31,2.5-2.19,4.86-4.3,7.27-6.33,1-.84,2.07-2.07,3.17-2.15,1.09-.08,1.9-.39,2.84-.87-.73.94-1.45,1.89-2.18,2.83.11.11.21.23.32.34.74-1.02,1.48-2.05,2.22-3.07.15.14.29.28.44.42v3.06c.48-.37,1.18-.61,1.31-1.04.35-1.16,1.16-.77,1.86-.91.56-.11,1.12-.3,1.63-.55.33-.16.59-.5.87-.76.13.11.27.23.4.34-.29.5-.57,1.02-.89,1.51-.47.72-.05,2.21.7,2.15.97-.08,2.15-.23,2.81-.86,2.72-2.56,5.19-5.42,7.9-7.98,7.49-7.08,15.27-13.76,24.05-19,1.47-.87,2.89-1.85,4.22-2.94.42-.35.46-1.21.68-1.84-.14-.07-.27-.13-.41-.2-.36.19-.72.37-1.33.69-.39-1.04-.75-2.02-1.14-3.05-1.86.19-3.84.39-5.84.6.24-.35.52-.76.8-1.17l-.24-.33c-1.07,1.09-2.13,2.19-3.2,3.28l-.36-.34c.09-.16.15-.35.27-.49,1.16-1.4,2.41-2.73,3.44-4.22.5-.72.59-1.75.86-2.64-.82-.2-1.63-.45-2.47-.57-.24-.04-.53.3-.8.46-.04-.06-.09-.13-.13-.19.31-.46.61-.93.97-1.48-.37.04-.56.06-.74.08.99-.71,1.41-1.44.46-2.48.86-.55,1.92-.84,2.2-1.5.63-1.46.86-3.12,1.29-4.69.12-.44.27-1.02.58-1.22,1.21-.77,2.43-1.63,3.76-2.04,1.55-.47,2.16-1.63,2.67-3.13-1.01.5-2.03.99-3.28,1.61.17-.68.25-1.03.39-1.58-1.36,1.01-1.86.16-1.9-.95-.04-.99-.61-1.41-1.22-1.29-2.28.49-4.52,1.16-6.65,1.73-.95-1.97-1.64.44-2.49.06-.49-1.92-.3-3.7,1.34-5.05-.67.06-1.19.15-1.7.13-.69-.02-1.38-.13-2.13-.2.3-.63.76-1.61,1.32-2.77-1.58.24-.42-.66-.52-1.42-1.08.29-2.07.57-3.07.84-.02-.13-.05-.26-.07-.39,1.83-1.61,3.66-3.22,5.89-5.18-1.36-.65-2.32-1.11-3.32-1.59.3-.29.76-.75,1.15-1.13-.47-.22-.88-.4-1.31-.6.24-.4.44-.6.5-.85.12-.44.15-.9.22-1.35-.44.16-.87.35-1.31.48-.88.26-1.76.58-2.66.72-.81.12-1.65-.03-2.46.07-1.08.14-2.15.41-3.22.63-.02-.09-.04-.18-.07-.27.44-.28.87-.56,1.63-1.05-.66.09-.96.13-1.56.21.75-.55,1.22-.89,1.69-1.24-.05-.1-.09-.2-.14-.3-1.37.4-2.74.8-4.2,1.23.26-.43.44-.73.6-1-.45-.26-.8-.47-1.3-.77.71-.45,1.2-.76,1.69-1.06-.65-.32-1.14-.56-1.64-.8-3.87-.78-7.14,1.3-10.47,3.18.37-.28.75-.57,1.12-.85-.05-.1-.1-.19-.14-.29-.53.24-1.06.48-1.48.68-.15-1.4-.31-2.82-.49-4.44.38-.23,1.08-.65,1.88-1.14Z"/>
          <path d="M54.89,5.93c-.8.49-1.5.91-1.88,1.14.18,1.62.33,3.04.49,4.44.43-.19.96-.44,1.48-.68.05.1.1.19.14.29-.37.28-.75.57-1.12.85,3.33-1.89,6.59-3.97,10.47-3.18.5.24.99.49,1.64.8-.48.3-.97.61-1.69,1.06.5.29.85.5,1.3.77-.16.27-.34.57-.6,1,1.47-.43,2.84-.83,4.2-1.23.05.1.09.2.14.3-.47.35-.94.69-1.69,1.24.61-.08.9-.12,1.56-.21-.76.49-1.19.77-1.63,1.05.02.09.04.18.07.27,1.07-.22,2.14-.49,3.22-.63.81-.11,1.65.05,2.46-.07.9-.14,1.78-.45,2.66-.72.44-.13.87-.32,1.31-.48-.07.45-.11.91-.22,1.35-.07.25-.26.45-.5.85.43.2.84.39,1.31.6-.39.38-.85.83-1.15,1.13,1,.48,1.96.94,3.32,1.59-2.24,1.97-4.06,3.58-5.89,5.18.02.13.05.26.07.39,1-.27,2-.55,3.07-.84.1.76-1.05,1.66.52,1.42-.56,1.17-1.02,2.14-1.32,2.77.74.08,1.43.18,2.13.2.51.02,1.03-.07,1.7-.13-1.65,1.35-1.83,3.12-1.34,5.05.85.38,1.53-2.03,2.49-.06,2.13-.57,4.37-1.24,6.65-1.73.6-.13,1.18.29,1.22,1.29.04,1.11.54,1.96,1.9.95-.14.56-.22.9-.39,1.58,1.26-.62,2.27-1.11,3.28-1.61-.51,1.5-1.12,2.66-2.67,3.13-1.33.41-2.55,1.27-3.76,2.04-.31.2-.46.78-.58,1.22-.43,1.57-.66,3.22-1.29,4.69-.29.66-1.35.95-2.2,1.5.96,1.04.54,1.77-.46,2.48.18-.02.37-.04.74-.08-.36.55-.67,1.02-.97,1.48.04.06.09.13.13.19.27-.16.56-.5.8-.46.83.12,1.65.37,2.47.57-.28.89-.37,1.93-.86,2.64-1.04,1.5-2.29,2.82-3.44,4.22-.11.14-.18.32-.27.49l.36.34c1.07-1.09,2.13-2.19,3.2-3.28l.24.33c-.28.41-.56.82-.8,1.17,2-.21,3.98-.41,5.84-.6.38,1.03.75,2,1.14,3.05.61-.31.97-.5,1.33-.69.14.07.27.13.41.2-.21.63-.26,1.5-.68,1.84-1.33,1.09-2.75,2.07-4.22,2.94-8.79,5.24-16.56,11.93-24.05,19-2.71,2.56-5.18,5.42-7.9,7.98-.67.63-1.85.78-2.81.86-.75.06-1.17-1.43-.7-2.15.32-.49.59-1,.89-1.51-.13-.11-.27-.23-.4-.34-.29.26-.54.59-.87.76-.52.25-1.07.44-1.63.55-.7.14-1.51-.25-1.86.91-.13.43-.82.67-1.31,1.04v-3.06c-.15-.14-.29-.28-.44-.42-.74,1.02-1.48,2.05-2.22,3.07-.11-.11-.21-.23-.32-.34.73-.94,1.45-1.89,2.18-2.83-.94.48-1.75.79-2.84.87-1.1.08-2.17,1.31-3.17,2.15-2.41,2.04-4.77,4.15-7.27,6.33-.27-.56-.46-.93-.64-1.31-.87.1-1.03,2.34-2.38.81.41-.76.88-1.62,1.35-2.48-.1-.07-.21-.15-.31-.22-.44.41-.88.82-1.67,1.57.19-.91.28-1.33.43-2.04-.63.62-1.05,1.29-1.61,1.49-.39.13-.98-.39-1.57-.66,1.79-3.08,4.61-5.09,5.7-8.42-.89,1.24-1.79,2.49-2.66,3.7-.69-1.09-1.21-1.92-1.83-2.91.13-.25.37-.73.86-1.71-.96.77-1.63,1.17-2.14,1.73-.58.65-1.02,1.43-1.71,2.43.9-4,1.63-5.43,4.15-8.35,1.14-1.32,2.31-2.61,3.43-3.94.21-.25.24-.65.27-.74-1.52,1-3.04,2.23-4.73,3.05-1.53.74-3.26,1.01-5.09,1.19.56-.71,1.12-1.41,1.67-2.12-2.1.12-2.15.15-5.96,3.57-.26-.3-.52-.61-.85-.99-.31.27-.62.55-1.22,1.08-.17-.9-.3-1.6-.47-2.47-.37.33-.78.7-1.33,1.21.09-1.53,2.21-2.18,1.16-4.03-1.07,1.52-2.08,2.96-3.33,4.73-1.07-3.34,1.91-4.13,2.38-6.18-.44-.34-.89-.69-1.34-1.04-.64.46-1.27.92-1.93,1.39-.06-.19-.15-.33-.11-.4,1.57-2.94,2.34-6.31,4.68-8.85,2.39-2.6,4.48-5.51,6.7-8.3.34-.43.61-.91.92-1.36-.1-.11-.19-.22-.29-.32-.41.28-.85.51-1.22.84-3.76,3.38-7.54,6.75-11.24,10.21-.69.65-1.46,1.06-2.02.45-.49-.53-.54-1.56-.67-2.4-.06-.41.13-.86.18-1.12-1.21.13-2.25.24-3.84.4.82-1.25,1.3-2.14,1.93-2.89,1.3-1.55,2.57-3.16,4.05-4.51,2.19-1.99,4.55-3.77,6.68-6-.45.05-.9.1-1.64.18-.11-.99-.23-1.99-.33-2.89-.6-.1-1.27-.22-1.94-.33,0-.11.02-.22.03-.32.31-.09.62-.19.94-.28-.15-.37-.21-.89-.47-1.07-.87-.59-.93-1.37.04-1.44,1.89-.14,2.7-1.76,3.92-2.77.98-.8,1.66-2.01,2.5-3,.28-.33.63-.71,1-.8,2.18-.5,2.83-2.85,4.53-3.91-.08-.12-.15-.24-.23-.36-.87.58-1.73,1.15-2.48,1.65-.56-.25-1.04-.62-1.51-.62-.93-.01-1.85.2-.93-1.28.07-.11-.15-.62-.28-.65-.8-.15-1.63-.33-2.43-.25-.44.04-.84.56-1.26.86-.11-.14-.22-.28-.34-.42,1.43-1.45,2.76-3.03,4.32-4.31,3.67-3.02,7.32-6.11,11.23-8.76,5.41-3.68,11.08-6.91,16.54-10.5,1.67-1.1,3.24-1.65,5.29-1.11Z"/>
        </g>
      </g>
    </g>
  </g>
</svg>