<svg id="Layer_1" data-name="Layer 1" xmlns="http://www.w3.org/2000/svg" viewBox="0 0 571.51 87.63"><polygon points="96.5 0.07 96.5 86.07 115.62 86.07 115.62 49.8 143.68 49.8 151.31 34.27 115.62 34.27 115.62 15.63 160.4 15.63 168 0.07 96.5 0.07"/><path d="M244.14,59.78c0,7.22-4.67,10.67-14.55,10.67H211.36V49.78H228.7c10.77,0,15.44,3,15.44,10m-2.89-35c0,6.78-4.44,10.11-13.44,10.11H211.36V15.56h16.56c8.89,0,13.33,3,13.33,9.22m-49-9.16V49.77H170.87l16.72-34.15Zm53.34,25.49v-.22c9-3.22,14.55-10.67,14.55-19.44C260.14,7.11,249.7,0,228.7,0L174.92.07l-42.07,86h20.22l10.67-21.76h28.51V86.07l19.3,0L231,86c21.78,0,32.45-8.12,32.45-24.89,0-10.12-6.45-17.45-17.89-20"/><polygon points="67.34 0.07 46 62.63 24.78 0.07 0 0.07 0 86.07 17.22 86.07 17.22 27.96 36.23 86.07 53.12 86.07 72 27.51 72 86.07 89.78 86.07 89.78 0.07 67.34 0.07"/><path d="M299.16,72.34c-8.56,0-13.67-6.67-13.67-18.23,0-11.88,4.89-18.33,13.67-18.33,8.55,0,13.55,6.67,13.55,18.33,0,11.89-4.66,18.23-13.55,18.23m.22-51.78c-19.45,0-32.56,13.22-32.67,33.67-.11,20.89,12.22,33.33,32.34,33.33S331.49,75,331.49,53.78c0-20.44-12.67-33.22-32.11-33.22"/><path d="M374.88,42.85l15.89-2.67a22.07,22.07,0,0,0-7.89-13,21.44,21.44,0,0,0-7.78-4.33,37.42,37.42,0,0,0-12.77-2c-8,0-14.45,2-19.34,5.89a19,19,0,0,0-7.33,15.66c0,4.78,1.55,9.56,4.66,12.67,4,3.78,9.56,5.11,19.12,6.56,1.22.22,8.33,1.22,9,1.33,4.33.56,6.55,1.78,6.55,4.67,0,4.55-4.44,6.55-10.22,6.55-7.89,0-13.22-2.77-14.89-9.55l-17,3.33a23,23,0,0,0,10.33,14.56c5.34,3.33,12.45,5,21.23,5,8.55,0,15.33-2,20.44-5.89s7.56-9,7.56-15.56c0-4.89-1-9-4.56-12.33-3.66-3.67-8.77-4.67-19.66-6.22-.56-.12-7.89-1.12-9-1.34-4-.78-6.12-2-6.12-5.33,0-4.56,3.78-6.67,9.23-6.67,6.44,0,11.55,2.67,12.55,8.67"/><path d="M432.66,87a45,45,0,0,0,6.45-1.44v-13a32.32,32.32,0,0,1-3.22.44,30.53,30.53,0,0,1-3.23.11c-3.77,0-6.44-.66-7.77-2s-2.12-3.89-2.12-7.55V35.74H439V22.18H422.77l.12-18L404.66,10.4V22.18H391.88V35.74h12.45V66.52c0,7.33,1.67,12.66,5.11,16s8.67,5,16,5a46.75,46.75,0,0,0,7.22-.56"/><path d="M473.16,72.41c-8.56,0-13.67-6.67-13.67-18.23,0-11.89,4.89-18.33,13.67-18.33,8.55,0,13.55,6.67,13.55,18.33,0,11.89-4.66,18.23-13.55,18.23m.22-51.79c-19.45,0-32.56,13.23-32.67,33.67C440.6,75.18,452.93,87.63,473,87.63s32.45-12.56,32.45-33.78c0-20.45-12.67-33.23-32.11-33.23"/><path d="M571.51,86.07v-39c0-17-7.56-26.22-21.45-26.22-9,0-16.55,4.66-21.11,12.78h-.33V22.18H510.5V86.07H529V52.63c0-10.78,4.78-17.12,13.11-17.12,7.67,0,11,5,11,16.67V86.07Z"/></svg>